<?xml version="1.0" encoding="utf-8"?>
<!-- Generator: Adobe Illustrator 28.2.0, SVG Export Plug-In . SVG Version: 6.00 Build 0)  -->
<svg version="1.1" id="Layer_1" xmlns="http://www.w3.org/2000/svg" xmlns:xlink="http://www.w3.org/1999/xlink" x="0px" y="0px"
	 viewBox="0 0 512 512" style="enable-background:new 0 0 512 512;" xml:space="preserve">
<style type="text/css">
	.st0{fill:#7BB9E5;}
	.st1{fill:#E3E2E2;}
	.st2{fill:#61A2D8;}
	.st3{fill:#F7C046;}
	.st4{fill:#F7A5A8;}
	.st5{fill:#519DD6;}
	.st6{fill:#F7C045;}
	.st7{fill:#61A1D8;}
	.st8{fill:#343D7B;}
	.st9{fill:#70B7E5;}
	.st10{fill:#F48691;}
	.st11{fill:#72B6E4;}
	.st12{fill:#333D7D;}
	.st13{fill:#72B7E5;}
	.st14{fill:#73B6E4;}
	.st15{fill:#519FD7;}
	.st16{fill:#E88D92;}
	.st17{fill:#66ACDF;}
	.st18{fill:#71B6E4;}
	.st19{fill:#519ED6;}
	.st20{fill:#73B5E3;}
	.st21{fill:#71B5E4;}
	.st22{fill:#70B9E6;}
	.st23{fill:#72B4E3;}
	.st24{fill:#DFDEDA;}
	.st25{fill:#6FB1E1;}
	.st26{fill:#FEFDF0;}
	.st27{fill:#DDDCD7;}
	.st28{fill:#73B7E5;}
	.st29{fill:#55A1D8;}
	.st30{fill:#5BA0D7;}
	.st31{fill:#75B9E6;}
	.st32{fill:#E98F94;}
	.st33{fill:#559ED6;}
	.st34{fill:#DFDED9;}
	.st35{fill:#67B0E1;}
	.st36{fill:#E2E0DB;}
	.st37{fill:#52A7DC;}
	.st38{fill:#73B4E2;}
	.st39{fill:#E0DED9;}
	.st40{fill:#72B3E2;}
	.st41{fill:#76B4E2;}
	.st42{fill:#53A1D8;}
	.st43{fill:#E5898F;}
	.st44{fill:#DEDDD8;}
	.st45{fill:#74B5E3;}
	.st46{fill:#DFDED8;}
	.st47{fill:#53A5DB;}
	.st48{fill:#579BD4;}
	.st49{fill:#59A7DC;}
	.st50{fill:#DEDDD9;}
	.st51{fill:#55A5DB;}
	.st52{fill:#DFDFDB;}
	.st53{fill:#5499D3;}
	.st54{fill:#E1DFDA;}
	.st55{fill:#DCD9D5;}
	.st56{fill:#5CA8DD;}
	.st57{fill:#E2E2DC;}
	.st58{fill:#4DA0D8;}
	.st59{fill:#E2E1DA;}
	.st60{fill:#63A4D9;}
</style>
<g>
	<path class="st0" d="M454.21,41.9c0.79-0.02,1.58-0.04,2.39-0.06c5.85-0.03,9.55,0.98,14,5.01c1.03,1.14,1.03,1.14,2.09,2.31
		c0.64,0.69,1.27,1.38,1.93,2.09c3.57,5.17,4.11,11.16,3.35,17.27c-1.79,6-4.95,10.82-9.85,14.74c-7.58,3.37-16.31,3.34-24.47,3.77
		c-9.68,0.66-18.06,3.1-24.65,10.53c-3.12,4.13-4.47,7.8-5.66,12.74c-0.27,1.09-0.27,1.09-0.55,2.21
		c-2.21,8.9-4.22,17.86-6.23,26.81c-0.42,1.89-0.85,3.77-1.27,5.66c-1.11,4.95-2.22,9.89-3.33,14.84
		c-1.09,4.88-2.19,9.76-3.29,14.64c-1.96,8.71-3.91,17.41-5.87,26.12c-1.56,6.95-3.12,13.9-4.68,20.86
		c-0.66,2.93-1.32,5.86-1.98,8.8c-0.42,1.85-0.83,3.7-1.25,5.55c-2.16,9.63-4.32,19.26-6.44,28.9c-1.57,7.11-3.21,14.21-4.89,21.29
		c-0.41,1.75-0.83,3.49-1.24,5.24c-0.82,3.46-1.64,6.92-2.48,10.39c-0.38,1.59-0.75,3.18-1.13,4.78c-0.18,0.74-0.36,1.48-0.55,2.24
		c-0.99,4.06-0.99,4.06-0.23,8.1c0.55-0.04,1.1-0.08,1.67-0.13c5.81-0.44,11.62-0.89,17.44-1.33c2.16-0.16,4.32-0.33,6.48-0.49
		c33.21-2.54,33.21-2.54,43.61-2.67c1.1-0.02,2.2-0.05,3.33-0.07c6.25,0.57,11.44,3.48,15.48,8.21c3.83,6.42,4.57,13.17,3.13,20.44
		c-1.79,5.78-5.72,9.7-10.89,12.66c-5.27,2.1-11.07,2.05-16.67,2.43c-1.43,0.1-2.85,0.21-4.28,0.31c-4.34,0.31-8.69,0.61-13.03,0.9
		c-2.81,0.19-5.62,0.38-8.43,0.57c-25.49,1.75-50.99,3.43-76.49,5.04c-0.63,0.04-1.25,0.08-1.9,0.12
		c-6.44,0.41-12.89,0.81-19.34,1.21c-10.2,0.64-20.39,1.31-30.57,2.08c-10.05,0.76-20.11,1.39-30.17,1.97
		c-14.95,0.86-29.89,1.8-44.83,2.96c-9.77,0.75-19.54,1.39-29.32,1.96c-1.93,0.11-3.85,0.22-5.78,0.34
		c-1.29,0.08-2.58,0.15-3.87,0.23c-0.64,0.04-1.28,0.07-1.94,0.11c-3.83,0.22-7.65,0.44-11.48,0.65c-1.82,0.1-3.64,0.21-5.46,0.31
		c-2.25,0.13-4.49,0.26-6.74,0.37c-9.25,0.52-9.25,0.52-17.21,4.89c-2.17,4.73-2.06,9.38-0.93,14.36c0.58,0,1.16,0,1.76,0
		c0,0.58,0,1.16,0,1.76c5.77,2.28,11.57,2.33,17.6,0.88c1.91-1.34,3.2-2.73,4.68-4.53c4.09-4.5,9.91-6.69,15.85-7.12
		c8.31-0.16,15.19,0.31,21.67,6.01c4.28,3.05,8.37,2.47,13.42,2.06c0.96-0.06,1.92-0.12,2.92-0.18c3.08-0.19,6.16-0.42,9.24-0.64
		c1.98-0.13,3.97-0.25,5.95-0.38c6.21-0.39,12.43-0.83,18.64-1.27c4.55-0.32,9.1-0.63,13.65-0.95c1.14-0.08,2.28-0.16,3.45-0.24
		c7.72-0.53,15.45-1,23.18-1.44c1.02-0.06,2.03-0.12,3.08-0.18c4.81-0.27,9.62-0.54,14.43-0.79c1.72-0.1,3.43-0.19,5.15-0.29
		c0.77-0.04,1.53-0.07,2.32-0.11c7.53-0.35,7.53-0.35,13.94-3.83c0.44-0.59,0.87-1.19,1.32-1.8c4.21-5.2,9.02-8.06,15.46-9.85
		c9.28-0.9,17.57-0.29,25.28,5.24c6.95,5.86,11.91,13.05,12.86,22.27c0.11,9.88-1.75,17.6-8.17,25.28
		c-4.88,4.77-10.29,7.01-16.77,8.81c0.54,0.03,1.09,0.07,1.64,0.1c23.32,1.48,46.64,2.98,69.86,5.62c0.76,0.08,1.52,0.17,2.3,0.25
		c8.41,0.94,16.74,2.16,25.07,3.71c0.77,0.14,1.54,0.28,2.33,0.43c11.14,2.16,11.14,2.16,14.97,5.73c0.65,2.34,0.65,2.34,0.88,4.4
		c-12.5,9.78-33.3,9.6-48.4,11.44c-1.45,0.18-1.45,0.18-2.94,0.37c-8.1,0.99-16.21,1.67-24.34,2.27c-0.78,0.06-1.56,0.12-2.36,0.18
		c-34.1,2.59-68.22,2.72-102.39,2.73c-3.45,0-6.9,0.01-10.35,0.01c-159.6,0.17-159.6,0.17-178.41-16.29
		c-0.44-0.53-0.87-1.05-1.32-1.59c0.46-2.35,1.09-3.91,3.05-5.35c10.09-5.03,22.61-6.09,33.64-7.63c0.8-0.11,1.6-0.22,2.42-0.34
		c4.61-0.61,9.05-0.87,13.7-0.76c-0.65-1.27-0.65-1.27-1.32-2.57c-0.57-1.12-1.14-2.25-1.71-3.37c-0.29-0.56-0.57-1.12-0.87-1.69
		c-2.21-4.37-3.27-7.53-3.2-12.39c0.01-0.7,0.02-1.41,0.02-2.13c0.01-0.53,0.02-1.06,0.03-1.61c-0.61,0.04-1.21,0.08-1.84,0.12
		c-8.01,0.31-13.3-1.44-19.5-6.5c-6.53-6.12-9.38-12.88-9.68-21.78c0.3-9.43,3.83-15.6,10.53-22.15c5.73-4.59,12.94-5.94,20.1-6.41
		c0.97-0.07,1.94-0.13,2.94-0.2c1.06-0.07,2.11-0.14,3.2-0.21c1.12-0.07,2.24-0.15,3.4-0.23c3.06-0.21,6.13-0.41,9.19-0.6
		c1.89-0.12,3.79-0.25,5.68-0.37c6.61-0.43,13.23-0.86,19.84-1.29c25.33-1.64,50.66-3.34,75.97-5.27c1.77-0.13,3.54-0.27,5.31-0.4
		c0.83-0.06,1.65-0.13,2.5-0.19c6.28-0.47,12.57-0.84,18.86-1.14c12.49-0.99,22.8-5.98,31.27-15.21c5.65-7.8,8.34-15.98,10.43-25.26
		c0.23-1,0.46-2,0.7-3.04c0.75-3.25,1.49-6.51,2.23-9.77c0.52-2.26,1.04-4.51,1.55-6.77c1.02-4.46,2.04-8.92,3.06-13.37
		c1.13-4.96,2.27-9.92,3.42-14.88c2.38-10.3,4.71-20.6,6.97-30.92c0.17-0.78,0.34-1.55,0.52-2.36c0.82-3.73,1.63-7.46,2.44-11.19
		c1.88-8.65,3.85-17.27,5.88-25.89c2.33-9.92,4.58-19.84,6.78-29.79c0.15-0.67,0.29-1.33,0.45-2.02c1.36-6.14,2.71-12.29,4.06-18.43
		c5.86-26.67,5.86-26.67,8.99-39.3c0.31-1.24,0.31-1.24,0.62-2.51c4.59-18.19,14.78-33.4,30.79-43.49
		C416.58,43.74,435.04,42.16,454.21,41.9z M448.93,54.44c0.29,1.16,0.58,2.32,0.88,3.52c1.45-0.29,2.9-0.58,4.4-0.88
		c0.29-0.87,0.58-1.74,0.88-2.64C451.94,53.56,451.94,53.56,448.93,54.44z M404.93,66.76c-0.7,1.84-0.7,1.84-0.88,3.52
		c2.92-0.54,4.72-1.6,7.1-3.35c8.13-5.52,16.7-7.02,26.35-8.09c0-1.16,0-2.32,0-3.52C426.26,54.9,413.38,59.21,404.93,66.76z
		 M290.29,403.44c-1.25,0.11-2.5,0.21-3.75,0.32c-0.66,0.06-1.31,0.11-1.99,0.17c-13.62,1.17-27.25,2.16-40.89,3.04
		c-0.85,0.06-1.7,0.11-2.58,0.17c-15.49,0.99-30.99,1.94-46.49,2.86c-0.09,0.99-0.17,1.98-0.26,2.99
		c-1.23,12.77-1.23,12.77-4.31,18.51c-0.84,1.38-0.84,1.38-0.71,3.14c0.96-0.02,1.92-0.05,2.91-0.07
		c28.41-0.7,56.82-1.05,85.23-1.28c5.57-0.05,11.14-0.09,16.72-0.14c10.81-0.09,21.62-0.18,32.44-0.27
		c-2.49-1.71-2.49-1.71-4.61-2.84c-8.75-4.87-13.51-10.48-16.52-20.04c-0.66-2.34-1.23-4.66-1.76-7.04
		C299.2,402.91,294.79,403.05,290.29,403.44z"/>
	<path class="st0" d="M341.56,136.29c1.16,3.82,0.31,6.87-0.62,10.66c-0.17,0.72-0.34,1.44-0.51,2.18c-0.37,1.57-0.75,3.13-1.13,4.7
		c-0.61,2.54-1.22,5.08-1.82,7.63c-0.64,2.69-1.27,5.38-1.91,8.07c-2,8.42-3.94,16.86-5.86,25.3c-1.91,8.36-3.83,16.72-5.75,25.07
		c-0.13,0.57-0.26,1.14-0.39,1.72c-4.39,19.11-8.8,38.21-13.29,57.29c-0.39,1.66-0.78,3.31-1.16,4.97
		c-1.32,5.65-2.66,11.3-4.03,16.94c-0.39,1.62-0.78,3.23-1.16,4.85c-2.82,11.98-6.07,20.3-16.44,27.48
		c-11.94,6.11-31.69,6.66-44.65,4.13c-6.79-2.32-10.44-6.77-13.74-12.97c-1.94-3.95-3.7-7.98-5.47-12.01
		c-0.8-1.79-1.59-3.57-2.39-5.36c-1.78-3.98-3.55-7.97-5.31-11.96c-1.99-4.5-4-9-6.02-13.49c-0.26-0.58-0.52-1.16-0.79-1.76
		c-1.02-2.28-2.05-4.56-3.07-6.83c-0.71-1.57-1.41-3.14-2.12-4.7c-0.4-0.9-0.81-1.79-1.22-2.71c-1-2.27-1.94-4.56-2.84-6.87
		c-2.48,9.27-4.87,18.56-7.18,27.87c-0.36,1.45-0.36,1.45-0.73,2.93c-0.99,3.99-1.98,7.99-2.96,11.99
		c-8.96,36.45-8.96,36.45-16.42,41.7c-6.33,3.24-12.63,4.34-19.64,5.06c-0.97,0.11-1.94,0.21-2.94,0.32
		c-12.81,1.34-23.74,2.22-34.45-5.99c-5.45-5.7-8.58-12.53-11.57-19.74c-3.1-7.36-6.37-14.62-9.77-21.85
		c-2.75-5.87-5.45-11.76-8.16-17.65c-0.33-0.71-0.65-1.42-0.99-2.15c-4.32-9.4-8.56-18.82-12.65-28.33
		c-2.4-5.58-4.92-11.08-7.52-16.57c-1.57-3.38-3.05-6.79-4.53-10.21c-1.91-4.42-3.92-8.75-6.11-13.04
		c-3.34-6.57-6.31-13.29-9.27-20.04c-1.54-3.52-3.1-7.03-4.65-10.55c-0.28-0.64-0.56-1.27-0.85-1.92
		c-1.65-3.72-3.41-7.31-5.41-10.86c-0.71-2.04-0.27-3.11,0.31-5.14c5.79-0.64,11.58-1.26,17.37-1.88c1.96-0.21,3.93-0.43,5.89-0.64
		c31.85-3.49,31.85-3.49,40.71,3.51c5.28,6.56,8.06,15.03,11.17,22.77c0.42,1.04,0.85,2.09,1.28,3.16c2.62,6.5,5.21,13,7.67,19.57
		c1.41,3.71,3.02,7.3,4.7,10.89c2.64,5.67,4.95,11.42,7.2,17.25c0.83,2.14,1.66,4.28,2.5,6.41c0.22,0.55,0.43,1.11,0.65,1.67
		c2.74,6.99,5.57,13.95,8.4,20.9c0.38,0.95,0.38,0.95,0.78,1.91c1.44,3.54,2.89,7.09,4.34,10.63c1.27-4.51,2.53-9.02,3.79-13.53
		c0.19-0.7,0.39-1.39,0.59-2.11c3.73-13.37,7.26-26.79,10.71-40.23c1.77-6.87,3.59-13.73,5.65-20.52c0.33-1.08,0.65-2.16,0.99-3.27
		c1.83-4.91,3.87-9.25,8.41-12.15c0.62-0.41,1.24-0.83,1.88-1.26c6.22-3.01,12.35-3.17,19.13-3.15c0.85-0.01,1.7-0.03,2.57-0.04
		c6.02,0,9.85,0.88,14.54,4.88c5.87,6.77,9.15,14.95,12.76,23.05c0.88,1.96,1.76,3.92,2.64,5.87c0.59,1.32,1.19,2.63,1.78,3.95
		c2.67,5.93,5.38,11.83,8.12,17.73c4.65,10.04,9.24,20.11,13.81,30.2c4.84-21.31,9.48-42.66,13.81-64.08
		c5.92-29.24,5.92-29.24,7.76-37.88c0.36-1.7,0.71-3.41,1.06-5.11c1.7-7.84,3.74-14.86,10.28-20.01c7.85-4.81,19.29-4.71,28.25-5.53
		c1.14-0.11,2.28-0.23,3.46-0.34C326.6,136.39,333.99,136.15,341.56,136.29z M52.01,177.65c0.54,4.33,2.42,7.79,4.4,11.61
		c0.32,0.64,0.65,1.27,0.98,1.93c0.84,1.65,1.69,3.3,2.54,4.95c0.29,0.58,0.58,1.16,0.88,1.76c0.87-0.29,1.74-0.58,2.64-0.88
		c-2.02-7-5.24-13.04-8.8-19.36C53.78,177.65,52.91,177.65,52.01,177.65z M66.09,207.58c0.51,3.07,1.31,5.59,2.67,8.38
		c0.54,1.12,0.54,1.12,1.1,2.27c0.39,0.79,0.78,1.58,1.18,2.39c2.77,5.71,5.48,11.43,7.98,17.27c1.85,4.31,3.81,8.52,5.94,12.71
		c2.34,4.6,4.51,9.25,6.6,13.97c0.29,0.66,0.58,1.31,0.88,1.99c1.56,3.53,3.08,7.07,4.58,10.62c0.31,0.73,0.62,1.45,0.94,2.2
		c0.6,1.39,1.18,2.79,1.76,4.19c1.55,3.67,1.55,3.67,4.42,6.3c0.51,0.15,1.03,0.29,1.55,0.44c-0.5-3.89-1.48-6.93-3.19-10.45
		c-2.09-4.39-4.08-8.79-6-13.26c-2.43-5.62-5.1-11.06-7.87-16.51c-1.32-2.69-2.5-5.4-3.62-8.18c-2.03-5.01-4.42-9.8-6.87-14.61
		c-1.73-3.45-3.32-6.95-4.9-10.48c-1.42-3.12-2.96-6.17-4.52-9.23C67.86,207.58,66.99,207.58,66.09,207.58z M110.98,302.63
		c-1.21,2.68-1.21,2.68,0.22,5.39c1.31,2.77,1.31,2.77,4.18,3.41c-0.45-3.27-0.98-5.93-2.64-8.8
		C112.16,302.63,111.58,302.63,110.98,302.63z"/>
	<path class="st1" d="M348.1,373.51c8.99,5.09,14.42,12.59,17.22,22.4c1.02,9.87-0.53,18.09-6.27,26.24
		c-4.99,5.97-11.01,8.68-18.37,10.73c0.54,0.03,1.09,0.07,1.64,0.1c23.32,1.48,46.64,2.98,69.86,5.62c0.76,0.08,1.52,0.17,2.3,0.25
		c8.41,0.94,16.74,2.16,25.07,3.71c1.15,0.21,1.15,0.21,2.33,0.43c11.14,2.16,11.14,2.16,14.97,5.73c0.65,2.34,0.65,2.34,0.88,4.4
		c-12.5,9.78-33.3,9.6-48.4,11.44c-0.97,0.12-1.94,0.24-2.94,0.37c-8.1,0.99-16.21,1.67-24.35,2.27c-0.78,0.06-1.56,0.12-2.36,0.18
		c-34.09,2.59-68.22,2.72-102.39,2.73c-3.45,0-6.9,0.01-10.35,0.01c-159.6,0.17-159.6,0.17-178.41-16.29
		c-0.44-0.53-0.87-1.05-1.32-1.6c0.46-2.35,1.09-3.91,3.05-5.35c10.09-5.03,22.61-6.09,33.64-7.63c1.2-0.17,1.2-0.17,2.42-0.34
		c4.61-0.61,9.05-0.87,13.69-0.76c-0.43-0.85-0.87-1.7-1.32-2.57c-0.57-1.12-1.14-2.25-1.71-3.37c-0.29-0.56-0.57-1.12-0.87-1.69
		c-4.45-8.8-3.56-15.7-0.66-24.92c0.99-2.56,2.18-4.75,3.67-7.05c-0.87-0.29-1.74-0.58-2.64-0.88c0.58-0.31,1.16-0.62,1.76-0.93
		c2.27-1.47,3.94-2.89,5.89-4.73c6.86-6.02,13.58-7.26,22.61-7c5.8,0.62,10.2,2.28,14.58,6.14c4.28,3.05,8.37,2.47,13.42,2.06
		c0.96-0.06,1.92-0.12,2.91-0.18c3.08-0.19,6.16-0.42,9.24-0.64c1.98-0.13,3.97-0.25,5.95-0.38c6.21-0.39,12.43-0.83,18.64-1.27
		c4.55-0.32,9.1-0.63,13.65-0.95c1.14-0.08,2.28-0.16,3.45-0.24c7.72-0.53,15.45-1,23.18-1.44c1.02-0.06,2.03-0.12,3.08-0.18
		c4.81-0.27,9.62-0.54,14.43-0.79c1.72-0.1,3.43-0.19,5.15-0.29c0.77-0.04,1.53-0.07,2.32-0.11c7.53-0.35,7.53-0.35,13.94-3.83
		c0.44-0.59,0.87-1.19,1.32-1.8C320.74,370.35,335.53,368.2,348.1,373.51z M290.29,403.44c-1.25,0.11-2.5,0.21-3.75,0.32
		c-0.66,0.06-1.32,0.11-1.99,0.17c-13.62,1.17-27.25,2.16-40.89,3.04c-0.85,0.05-1.7,0.11-2.58,0.17
		c-15.49,0.99-30.99,1.94-46.49,2.86c-0.09,0.99-0.17,1.98-0.26,2.99c-1.23,12.77-1.23,12.77-4.31,18.51
		c-0.84,1.38-0.84,1.38-0.71,3.14c0.96-0.02,1.92-0.05,2.91-0.07c28.41-0.7,56.82-1.05,85.23-1.28c5.57-0.05,11.14-0.09,16.72-0.14
		c10.81-0.09,21.62-0.18,32.44-0.27c-2.49-1.71-2.49-1.71-4.61-2.84c-8.75-4.87-13.51-10.48-16.52-20.04
		c-0.66-2.34-1.23-4.66-1.76-7.04C299.2,402.91,294.79,403.05,290.29,403.44z"/>
	<path class="st2" d="M378.52,248.94c0.31,1.17,0.6,2.34,0.88,3.52c0.19,0.75,0.38,1.5,0.58,2.28c0.4,3.94-0.41,7.12-1.38,10.93
		c-0.18,0.76-0.37,1.52-0.56,2.31c-0.4,1.62-0.8,3.24-1.2,4.87c-0.63,2.51-1.24,5.03-1.85,7.55c-0.8,3.29-1.6,6.58-2.41,9.87
		c-1.33,5.42-2.63,10.84-3.9,16.27c-0.18,0.76-0.37,1.51-0.55,2.29c-0.94,3.95-0.94,3.95-0.16,7.88c0.83-0.06,0.83-0.06,1.67-0.13
		c5.81-0.44,11.62-0.89,17.44-1.33c2.16-0.16,4.32-0.33,6.48-0.49c33.21-2.54,33.21-2.54,43.61-2.67c1.1-0.02,2.2-0.05,3.33-0.07
		c6.25,0.57,11.44,3.48,15.48,8.21c3.83,6.42,4.57,13.17,3.13,20.44c-1.79,5.78-5.72,9.7-10.89,12.66
		c-5.27,2.1-11.07,2.05-16.67,2.43c-1.43,0.1-2.85,0.21-4.28,0.31c-4.34,0.31-8.69,0.61-13.03,0.9c-2.81,0.19-5.62,0.38-8.43,0.57
		c-25.49,1.75-50.99,3.43-76.49,5.04c-0.63,0.04-1.25,0.08-1.9,0.12c-6.44,0.41-12.89,0.81-19.34,1.21
		c-10.2,0.64-20.39,1.31-30.57,2.08c-10.05,0.76-20.11,1.39-30.17,1.97c-14.95,0.86-29.89,1.8-44.83,2.96
		c-9.77,0.75-19.54,1.39-29.32,1.96c-1.93,0.11-3.85,0.22-5.78,0.34c-1.29,0.08-2.58,0.15-3.87,0.23c-0.64,0.04-1.28,0.07-1.94,0.11
		c-3.83,0.22-7.65,0.44-11.48,0.65c-1.82,0.1-3.64,0.21-5.46,0.31c-2.25,0.13-4.49,0.26-6.74,0.37c-9.25,0.52-9.25,0.52-17.21,4.89
		c-2.17,4.73-2.06,9.38-0.93,14.36c0.58,0,1.16,0,1.76,0c0,0.58,0,1.16,0,1.76c4.49,1.56,8.25,1.91,13,1.74
		c1.97,0.02,1.97,0.02,4.61,0.9c-0.25,0.6-0.5,1.2-0.76,1.83c-1.09,2.83-1.99,5.67-2.87,8.57c-0.31,1.02-0.62,2.04-0.94,3.1
		c-0.23,0.77-0.47,1.55-0.71,2.35c-9.08,0.55-15.12-0.59-22.22-6.38c-6.53-6.12-9.38-12.88-9.68-21.78
		c0.3-9.43,3.83-15.6,10.53-22.15c5.73-4.59,12.94-5.94,20.1-6.41c0.97-0.07,1.94-0.13,2.94-0.2c1.06-0.07,2.11-0.14,3.2-0.21
		c1.68-0.11,1.68-0.11,3.4-0.23c3.06-0.21,6.13-0.41,9.19-0.6c1.89-0.12,3.79-0.25,5.68-0.37c6.61-0.43,13.23-0.86,19.84-1.29
		c25.33-1.64,50.66-3.34,75.97-5.27c1.77-0.13,3.54-0.27,5.31-0.4c0.83-0.06,1.65-0.13,2.5-0.19c6.28-0.47,12.57-0.84,18.86-1.14
		c12.49-0.99,22.8-5.98,31.27-15.21c5.08-7,8-14.45,9.85-22.83c0.16-0.69,0.31-1.37,0.47-2.08c0.38-1.67,0.75-3.34,1.12-5.02
		c1.09,0.07,2.18,0.15,3.3,0.22c11.43-0.04,21.57-6.4,29.62-14.02c1.4-1.16,1.4-1.16,3.16-1.16c0.24-0.52,0.47-1.03,0.71-1.56
		c1.06-1.97,2.22-3.41,3.69-5.09C369.97,271.77,375.49,260.29,378.52,248.94z"/>
	<path class="st3" d="M348.1,373.51c8.99,5.09,14.42,12.59,17.22,22.4c1.02,9.87-0.53,18.09-6.27,26.24
		c-5.07,6.07-13.38,11.03-21.38,11.81c-2.23,0.05-4.44,0.02-6.67-0.04c-0.77-0.01-1.53-0.02-2.32-0.04
		c-1.87-0.03-3.73-0.08-5.6-0.13c0.29-0.58,0.58-1.16,0.88-1.76c-0.55-0.29-1.11-0.58-1.68-0.88c-8.18-4.54-13.71-9.97-17.08-18.79
		c-0.81-3.11-1.11-6.19-1.49-9.37c-1.26,0.15-1.26,0.15-2.55,0.31c-14.5,1.66-29.06,2.57-43.62,3.56c-2.83,0.19-5.66,0.39-8.48,0.59
		c-40.71,2.84-40.71,2.84-54.48,2.58c0.05,0.99,0.05,0.99,0.09,2c0.22,8.47-1.26,15.19-5.37,22.64c1.74,0.44,1.74,0.44,3.52,0.88
		c-1.03,0.04-2.07,0.07-3.13,0.11c-3.91,0.47-5.6,2.02-8.37,4.68c-5.51,4.47-13.34,6.14-20.3,6.09c-5.51-0.68-10.68-3.24-15.37-6.13
		c-1.97-1.33-1.97-1.33-3.94-1.46c-2.89-1.11-3.71-3.98-4.93-6.64c-0.27-0.55-0.54-1.11-0.82-1.68c-4.22-8.81-3.36-15.74-0.48-24.87
		c0.99-2.56,2.18-4.75,3.67-7.05c-0.87-0.29-1.74-0.58-2.64-0.88c0.58-0.31,1.16-0.62,1.76-0.93c2.27-1.47,3.94-2.89,5.89-4.73
		c6.86-6.02,13.58-7.26,22.61-7c5.8,0.62,10.2,2.28,14.58,6.14c4.28,3.05,8.37,2.47,13.42,2.06c0.96-0.06,1.92-0.12,2.91-0.18
		c3.08-0.19,6.16-0.42,9.24-0.64c1.98-0.13,3.97-0.25,5.95-0.38c6.21-0.39,12.43-0.83,18.64-1.27c4.55-0.32,9.1-0.63,13.65-0.95
		c1.14-0.08,2.28-0.16,3.45-0.24c7.72-0.53,15.45-1,23.18-1.44c1.02-0.06,2.03-0.12,3.08-0.18c4.81-0.27,9.62-0.54,14.43-0.79
		c1.72-0.1,3.43-0.19,5.15-0.29c0.77-0.04,1.53-0.07,2.32-0.11c7.53-0.35,7.53-0.35,13.94-3.83c0.44-0.59,0.87-1.19,1.32-1.8
		C320.74,370.35,335.53,368.2,348.1,373.51z"/>
	<path class="st4" d="M233.34,71.01c6.47,6.77,9.13,15.46,9.02,24.68c-1,11.32-6.53,18.83-14.05,26.8c-0.5,0.53-0.99,1.06-1.5,1.6
		c-5.45,5.74-11,11.38-16.57,17.01c-1.07,1.09-2.15,2.17-3.22,3.27c-1.52,1.55-3.06,3.09-4.59,4.63c-0.46,0.47-0.92,0.94-1.39,1.42
		c-3.49,3.47-6.24,4.94-11.07,5.69c-6.83-0.91-12.06-5.99-16.5-11c0-0.58,0-1.16,0-1.76c-0.87-0.29-1.74-0.58-2.64-0.88
		c0-0.58,0-1.16,0-1.76c-0.87-0.29-1.74-0.58-2.64-0.88c-1.33-1.35-1.33-1.35-2.75-3.08c-4.19-4.94-8.82-9.39-13.46-13.9
		c-7.95-7.84-13.91-14.79-14.22-26.33c0-0.74,0-1.48,0.01-2.24c0-0.77,0-1.54,0-2.34c0.22-8,2.8-13.75,7.97-19.83
		c0.73-0.6,1.45-1.2,2.2-1.81c0.82-0.76,1.63-1.53,2.47-2.31c6.78-5.05,13.94-5.7,22.17-5c5.63,0.88,10.68,3.65,14.36,7.94
		c0.73,1,0.73,1,1.47,2.02c2.54-1.16,4.4-2.44,6.44-4.35C206.26,58.63,222.68,61.46,233.34,71.01z M152.94,77.45
		c-4.58,5.06-6.34,11.43-6.3,18.12c0.88,5.89,3.98,12.97,8.55,16.87c0.77,0.48,0.77,0.48,1.55,0.96c0-3.86-0.68-5.1-2.59-8.36
		c-3.16-5.43-4.43-9.99-3.57-16.28c2.1-6.35,4.98-9.7,10.56-13.2c0-0.58,0-1.16,0-1.76C156.87,73.81,155.97,74.72,152.94,77.45z"/>
	<path class="st2" d="M335.73,136.24c1.64,0.01,1.64,0.01,3.32,0.02c1.24,0.02,1.24,0.02,2.51,0.03c1.16,3.82,0.31,6.87-0.62,10.66
		c-0.17,0.72-0.34,1.44-0.51,2.18c-0.37,1.57-0.75,3.13-1.13,4.7c-0.61,2.54-1.22,5.08-1.82,7.63c-0.64,2.69-1.27,5.38-1.91,8.07
		c-2,8.42-3.94,16.86-5.86,25.3c-1.91,8.36-3.83,16.72-5.75,25.07c-0.13,0.57-0.26,1.14-0.39,1.72
		c-4.39,19.11-8.8,38.21-13.29,57.29c-0.39,1.66-0.78,3.31-1.16,4.97c-1.32,5.65-2.66,11.3-4.03,16.94
		c-0.39,1.62-0.78,3.24-1.16,4.85c-2.82,11.98-6.07,20.3-16.44,27.48c-11.94,6.11-31.69,6.66-44.65,4.13
		c-7.9-2.7-11.58-8.55-15.15-15.73c-0.33-0.68-0.65-1.35-0.99-2.05c-0.48-1-0.48-1-0.97-2.01c-2.22-4.86-2.22-4.86-1.23-7.84
		c0.86-0.09,0.86-0.09,1.74-0.17c22.66-2.32,41.79-8.19,57.39-25.9c10.82-13.57,14.97-29.4,19.03-45.98
		c0.32-1.3,0.65-2.61,0.97-3.91c4.27-17.27,8.43-34.57,12.61-51.86c3.39-14.02,6.82-28.04,10.35-42.03
		c-1.16-0.29-2.32-0.58-3.52-0.88c0.29-0.58,0.58-1.16,0.88-1.76C327.89,136.23,331.7,136.2,335.73,136.24z"/>
	<path class="st5" d="M437.47,312.07c1.06-0.02,2.11-0.04,3.2-0.06c6.11,0.62,11.32,3.55,15.3,8.22c3.83,6.42,4.57,13.17,3.13,20.44
		c-1.79,5.78-5.72,9.7-10.89,12.66c-5.27,2.1-11.07,2.05-16.67,2.43c-1.43,0.1-2.85,0.21-4.28,0.31c-4.34,0.31-8.69,0.61-13.03,0.9
		c-2.81,0.19-5.62,0.38-8.43,0.57c-25.49,1.75-50.99,3.43-76.49,5.04c-0.94,0.06-0.94,0.06-1.9,0.12
		c-6.44,0.41-12.89,0.81-19.34,1.21c-10.2,0.64-20.39,1.31-30.57,2.08c-10.05,0.76-20.11,1.39-30.17,1.97
		c-14.95,0.86-29.89,1.8-44.83,2.96c-9.77,0.75-19.54,1.39-29.32,1.96c-1.93,0.11-3.85,0.22-5.78,0.34
		c-1.29,0.08-2.58,0.15-3.87,0.23c-0.64,0.04-1.28,0.07-1.94,0.11c-3.83,0.22-7.65,0.44-11.48,0.65c-1.82,0.1-3.64,0.21-5.46,0.31
		c-2.25,0.13-4.49,0.26-6.74,0.37c-9.25,0.52-9.25,0.52-17.21,4.89c-2.17,4.73-2.06,9.38-0.93,14.36c0.58,0,1.16,0,1.76,0
		c0,0.58,0,1.16,0,1.76c4.49,1.56,8.25,1.91,13,1.74c1.97,0.02,1.97,0.02,4.61,0.9c-0.38,0.9-0.38,0.9-0.76,1.83
		c-1.09,2.83-1.99,5.67-2.87,8.57c-0.31,1.02-0.62,2.04-0.94,3.1c-0.23,0.77-0.47,1.55-0.71,2.35c-9.08,0.55-15.12-0.59-22.22-6.38
		c-6.53-6.12-9.38-12.88-9.68-21.78c0.3-9.43,3.83-15.6,10.53-22.15c5.73-4.59,12.94-5.94,20.1-6.41c0.97-0.07,1.94-0.13,2.94-0.2
		c1.06-0.07,2.11-0.14,3.2-0.21c1.12-0.07,2.24-0.15,3.4-0.23c3.06-0.21,6.13-0.41,9.19-0.6c1.89-0.12,3.79-0.25,5.68-0.37
		c6.61-0.43,13.23-0.86,19.84-1.29c25.33-1.64,50.66-3.34,75.97-5.27c1.77-0.13,3.54-0.27,5.31-0.4c0.83-0.06,1.65-0.13,2.5-0.19
		c6.28-0.47,12.57-0.84,18.86-1.14c13.81-1.09,23.16-7.1,32.75-16.69c0.82-0.82,1.66-1.6,2.53-2.36c1.58-1.79,2.24-3.6,3.03-5.83
		c0.58,0,1.16,0,1.76,0c-3.37,11.39-11.81,18.45-21.76,24.29c-10.88,5.5-24.15,5.19-36.11,5.96c-1.63,0.11-3.25,0.22-4.88,0.33
		c-3.55,0.24-7.1,0.48-10.65,0.71c-6.24,0.42-12.48,0.85-18.72,1.28c-1.1,0.08-2.19,0.15-3.32,0.23c-2.22,0.15-4.45,0.31-6.68,0.46
		c-17.39,1.2-34.78,2.4-52.17,3.54c-2.2,0.15-4.4,0.3-6.6,0.46c-7.71,0.54-15.33,0.65-23.06,0.58c0.87,3.78,1.74,7.55,2.64,11.44
		c1.48-0.17,2.97-0.34,4.49-0.52c2.08-0.23,4.16-0.46,6.23-0.69c0.96-0.11,1.92-0.22,2.91-0.34c11.43-1.26,22.89-1.96,34.36-2.71
		c2.32-0.15,4.64-0.31,6.95-0.46c12.42-0.82,24.84-1.64,37.26-2.45c3.14-0.21,6.27-0.41,9.41-0.62c27.59-1.81,55.18-3.59,82.78-5.28
		c1.04-0.06,2.09-0.13,3.16-0.19c1.87-0.12,3.74-0.23,5.61-0.34c4.23-0.26,8.46-0.55,12.69-0.89c7.33-0.57,14.67-1.03,22.01-1.49
		c4.44-0.28,8.88-0.57,13.33-0.85c5.61-0.36,11.23-0.72,16.84-1.07c4.57-0.29,9.15-0.58,13.72-0.88c1.72-0.11,3.45-0.22,5.18-0.33
		c8.02-0.5,16.03-1.03,24.01-1.93c1.08-0.12,2.15-0.24,3.26-0.37c4.15-0.84,7.2-2.22,10.2-5.22c3.3-5.18,4.18-10.74,2.86-16.74
		c-1.53-5.26-3.65-8.69-8.58-11.43c-8.17-2.23-16.34-1.3-24.67-0.66c-1.39,0.1-2.78,0.2-4.17,0.3c-3.64,0.26-7.28,0.53-10.91,0.8
		c-5.82,0.43-11.64,0.86-17.45,1.28c-2.02,0.15-4.03,0.3-6.05,0.45c-6.43,0.48-12.8,0.81-19.26,0.69c3.31-2.21,5.84-3.67,9.83-4.03
		c0.72-0.07,1.43-0.13,2.17-0.2c0.77-0.06,1.55-0.13,2.34-0.19c0.81-0.07,1.63-0.14,2.47-0.22c8.58-0.74,17.16-1.35,25.75-1.9
		c2.61-0.17,5.23-0.35,7.84-0.53C422.38,312.66,429.92,312.19,437.47,312.07z"/>
	<path class="st6" d="M178.74,388.87c2.16,1.37,4.13,2.83,6.16,4.4c0.87,0.58,1.74,1.16,2.64,1.76c-0.58,0.58-1.16,1.16-1.76,1.76
		c0.51,0.56,1.02,1.13,1.54,1.71c2.11,2.88,3.36,5.66,4.68,8.95c0.69,1.82,0.69,1.82,2.58,2.54c0.43,9.21-0.79,16.52-5.28,24.64
		c1.74,0.44,1.74,0.44,3.52,0.88c-1.03,0.04-2.07,0.07-3.13,0.11c-3.91,0.47-5.6,2.02-8.37,4.68c-5.51,4.47-13.34,6.14-20.3,6.09
		c-5.51-0.68-10.68-3.23-15.37-6.13c-1.97-1.33-1.97-1.33-3.94-1.46c-2.89-1.11-3.71-3.98-4.93-6.64c-0.27-0.55-0.54-1.11-0.82-1.68
		c-4.22-8.81-3.36-15.74-0.48-24.87c0.99-2.57,2.18-4.75,3.67-7.05c-0.87-0.29-1.74-0.58-2.64-0.88c0.58-0.31,1.16-0.62,1.76-0.93
		c2.27-1.47,3.94-2.89,5.89-4.73C153.8,383.54,167.56,382.56,178.74,388.87z"/>
	<path class="st7" d="M191.07,280.62c0.87,0.29,1.74,0.58,2.64,0.88c-2.61,12.4-5.67,24.66-8.96,36.89
		c-0.45,1.67-0.89,3.34-1.32,5.02c-1.98,7.65-4.09,14.93-10.85,19.69c-6.33,3.24-12.63,4.34-19.64,5.06
		c-0.97,0.11-1.94,0.21-2.94,0.32c-22.9,2.39-22.9,2.39-32.65-4.61c-7.48-6.32-10.74-14.78-14.3-23.65
		c5.48-0.78,10.21-0.82,15.68-0.05c17.7,2.16,35.27,1.01,50.09-9.86C178.9,302.31,185.31,291.94,191.07,280.62z"/>
	<path class="st8" d="M304.6,386.23c0,0.58,0,1.16,0,1.76c1.45,0,2.9,0,4.4,0c-0.17,0.5-0.34,1-0.52,1.52
		c-1.11,3.29-2.19,6.57-3.11,9.92c-0.77,2.64-0.77,2.64-1.65,3.52c-2.15,0.32-4.28,0.57-6.44,0.79c-0.72,0.07-1.45,0.15-2.19,0.23
		c-12.49,1.23-25.02,2-37.53,2.85c-2.83,0.19-5.66,0.39-8.49,0.59c-40.46,2.82-40.46,2.82-56.24,2.58c-0.42-0.8-0.85-1.59-1.29-2.41
		c-0.56-1.05-1.12-2.1-1.68-3.15c-0.28-0.52-0.56-1.05-0.85-1.59c-1.28-2.39-2.6-4.68-4.1-6.94c4.46-2.98,9.25-2.87,14.5-3.2
		c0.74-0.05,1.48-0.1,2.25-0.15c2.46-0.16,4.92-0.32,7.38-0.47c1.74-0.11,3.47-0.23,5.21-0.34c3.66-0.24,7.32-0.47,10.98-0.71
		c4.6-0.29,9.19-0.59,13.79-0.89c17.12-1.11,34.25-2.2,51.38-3.21c0.64-0.04,1.27-0.08,1.93-0.11
		C302.5,386.23,302.5,386.23,304.6,386.23z"/>
	<path class="st9" d="M454.21,41.9c0.79-0.02,1.58-0.04,2.39-0.06c5.85-0.03,9.55,0.98,14,5.01c1.03,1.14,1.03,1.14,2.09,2.31
		c0.64,0.69,1.27,1.38,1.93,2.09c3.57,5.17,4.11,11.16,3.35,17.27c-1.79,6-4.95,10.82-9.85,14.74c-7.58,3.37-16.31,3.34-24.47,3.77
		c-9.68,0.66-18.06,3.1-24.65,10.53c-3.12,4.13-4.47,7.8-5.66,12.74c-0.18,0.73-0.37,1.46-0.55,2.21
		c-2.21,8.9-4.22,17.86-6.23,26.81c-0.42,1.89-0.85,3.77-1.27,5.66c-1.11,4.95-2.22,9.89-3.33,14.84
		c-1.09,4.88-2.19,9.76-3.29,14.64c-0.65,2.91-1.31,5.81-1.96,8.72c-0.43,1.93-0.87,3.86-1.3,5.79c-2.22,9.89-4.44,19.78-6.63,29.67
		c-0.89,4.02-1.78,8.04-2.68,12.06c-0.42,1.91-0.85,3.82-1.27,5.73c-0.58,2.63-1.16,5.26-1.75,7.89c-0.17,0.78-0.34,1.55-0.51,2.36
		c-0.16,0.71-0.32,1.43-0.49,2.17c-0.14,0.62-0.27,1.24-0.41,1.87c-0.55,1.9-1.34,3.53-2.27,5.27c-1.98-6.2-0.5-12.2,0.96-18.32
		c0.29-1.25,0.29-1.25,0.59-2.53c0.63-2.73,1.28-5.46,1.92-8.19c0.44-1.91,0.89-3.82,1.33-5.73c0.9-3.87,1.8-7.75,2.71-11.62
		c1.66-7.08,3.3-14.17,4.94-21.26c0.32-1.4,0.65-2.8,0.97-4.2c2.19-9.48,4.34-18.98,6.45-28.48c0.43-1.95,0.87-3.91,1.3-5.86
		c0.14-0.64,0.28-1.28,0.43-1.94c0.29-1.29,0.57-2.58,0.86-3.87c0.75-3.39,1.5-6.78,2.25-10.17c0.78-3.54,1.56-7.07,2.36-10.61
		c0.3-1.33,0.59-2.67,0.88-4c1.51-6.94,3.1-13.53,6.39-19.87c0.31-0.63,0.62-1.26,0.94-1.92c2.83-5.57,7.65-8.56,13.14-11.29
		c4.12-1.33,7.95-2.05,12.26-2.39c1.14-0.1,2.27-0.2,3.44-0.3c1.77-0.15,3.55-0.29,5.32-0.42c12.14-0.84,12.14-0.84,22.05-7.29
		c3.11-4.81,4.16-9.44,3.57-15.13c-1.97-6.18-4.86-10.26-10.29-13.92c-12.07-4.33-30.75-0.16-43.01,2.36
		c-0.65,0.13-1.31,0.26-1.98,0.4c-4.54,1.02-8.42,2.75-12.49,4.99c-0.75,0.41-1.5,0.82-2.27,1.24c-0.61,0.35-1.23,0.7-1.86,1.07
		c-2.67,1.5-5.3,2.82-8.2,3.85c0,0.58,0,1.16,0,1.76c-0.97,0.88-1.99,1.72-3.03,2.53c-11.43,9.81-16.36,22.29-19.69,36.54
		c-0.34,1.44-0.34,1.44-0.69,2.91c-2.48,10.5-4.86,21.03-7.23,31.56c-0.46,2.05-0.92,4.09-1.39,6.14
		c-0.92,4.09-1.84,8.18-2.77,12.26c-0.99,4.39-1.98,8.77-2.97,13.16c-3.69,16.28-7.3,32.57-10.81,48.88
		c-3.97,18.44-8.1,36.83-12.36,55.2c-0.71,3.07-1.42,6.15-2.12,9.22c-0.24,1.03-0.47,2.07-0.72,3.13c-0.45,1.98-0.9,3.95-1.35,5.93
		c-1.06,4.6-2.17,9.15-3.52,13.67c-0.87-0.29-1.74-0.58-2.64-0.88c0.64-6.53,2.1-12.81,3.57-19.2c0.28-1.21,0.55-2.42,0.83-3.63
		c0.88-3.83,1.76-7.67,2.64-11.5c1.14-4.95,2.28-9.9,3.41-14.85c0.14-0.63,0.29-1.26,0.44-1.91c2.79-12.16,5.47-24.35,8.11-36.54
		c1.88-8.65,3.86-17.28,5.88-25.9c2.33-9.92,4.58-19.84,6.78-29.79c0.15-0.67,0.29-1.33,0.45-2.02c1.36-6.14,2.71-12.29,4.06-18.43
		c5.86-26.67,5.86-26.67,8.99-39.3c0.2-0.83,0.41-1.66,0.62-2.51c4.59-18.19,14.78-33.4,30.79-43.49
		C416.58,43.74,435.04,42.16,454.21,41.9z"/>
	<path class="st10" d="M229.79,71.16c2.61,0.29,4.02,0.49,5.89,2.39c5.66,8.8,7.99,17.41,5.82,27.8
		c-2.41,8.74-7.07,14.64-13.2,21.13c-0.5,0.53-0.99,1.06-1.5,1.6c-5.45,5.74-11,11.38-16.57,17.01c-1.07,1.09-2.15,2.17-3.22,3.26
		c-1.52,1.55-3.06,3.09-4.59,4.63c-0.46,0.47-0.92,0.94-1.39,1.42c-3.49,3.47-6.24,4.94-11.07,5.69c-6.83-0.91-12.06-5.99-16.5-11
		c0-0.58,0-1.16,0-1.76c-0.87-0.29-1.74-0.58-2.64-0.88c0-0.58,0-1.16,0-1.76c-0.87-0.29-1.74-0.58-2.64-0.88c0-0.58,0-1.16,0-1.76
		c1.08-0.14,2.17-0.28,3.29-0.42c17.92-2.46,34-9.51,45.5-24.06c4.41-6.01,8.68-12.42,11.06-19.52c0.2-0.57,0.39-1.13,0.59-1.71
		C230.54,85.51,229.93,78.19,229.79,71.16z"/>
	<path class="st11" d="M326.6,138.05c-0.29,0.87-0.58,1.74-0.88,2.64c-1.1,0.11-1.1,0.11-2.22,0.21c-2.75,0.27-5.5,0.54-8.25,0.82
		c-1.76,0.18-3.52,0.34-5.28,0.52c-11.6,0.93-11.6,0.93-22.09,5.49c-0.58,0-1.16,0-1.76,0c-0.59,1.46-1.18,2.93-1.76,4.4
		c-0.42,1.06-0.85,2.12-1.28,3.21c-1.41,3.77-2.25,7.53-3,11.48c-0.14,0.72-0.28,1.44-0.43,2.19c-0.45,2.3-0.89,4.59-1.34,6.89
		c-0.58,2.99-1.17,5.98-1.75,8.97c-0.15,0.77-0.3,1.53-0.46,2.33c-3.42,17.42-7.19,34.77-10.95,52.13
		c-0.64,2.97-1.28,5.95-1.93,8.92c-0.62,2.89-1.25,5.77-1.87,8.66c-0.23,1.06-0.45,2.11-0.69,3.2c-1.05,4.84-2.14,9.63-3.59,14.37
		c-1.45,0.29-2.9,0.58-4.4,0.88c-0.43-0.98-0.85-1.96-1.29-2.97c-2.89-6.59-5.82-13.13-9.1-19.53c-2.98-5.83-5.64-11.77-8.25-17.77
		c-3.41-7.83-6.88-15.63-10.47-23.39c-0.74-1.6-1.47-3.2-2.2-4.8c-4.89-10.92-4.89-10.92-14.17-18.01
		c-8.72-1.97-19.47-0.95-27.56,2.86c-5.37,3.39-7.19,8.51-8.68,14.47c-0.43,2.04-0.84,4.08-1.2,6.13c-0.52,2.41-1.12,4.56-1.92,6.88
		c-1.59,4.63-2.73,9.34-3.87,14.1c-1.89,7.7-3.93,15.33-6.16,22.94c-1.79,6.15-3.35,12.34-4.8,18.59c-0.96,4-2.15,7.43-4.17,11.06
		c-0.29,0-0.58,0-0.88,0c-0.45-6.72,0.97-12.38,2.83-18.82c0.92-3.18,1.81-6.37,2.7-9.56c0.19-0.68,0.38-1.36,0.58-2.06
		c1.51-5.37,2.94-10.76,4.34-16.16c0.21-0.81,0.42-1.63,0.64-2.47c0.84-3.22,1.67-6.44,2.5-9.66c1.98-7.69,3.99-15.36,6.29-22.96
		c0.33-1.08,0.65-2.15,0.99-3.26c1.83-4.9,3.87-9.24,8.4-12.14c0.62-0.41,1.24-0.83,1.88-1.26c6.22-3.01,12.35-3.17,19.13-3.15
		c0.85-0.01,1.7-0.03,2.57-0.04c6.02,0,9.85,0.88,14.54,4.88c5.87,6.77,9.15,14.95,12.76,23.05c0.88,1.96,1.76,3.92,2.64,5.87
		c0.59,1.32,1.19,2.63,1.78,3.95c2.67,5.93,5.38,11.83,8.12,17.73c4.65,10.04,9.24,20.11,13.81,30.2
		c4.84-21.31,9.48-42.66,13.81-64.08c5.92-29.24,5.92-29.24,7.76-37.88c0.36-1.7,0.71-3.41,1.06-5.11
		c1.72-7.96,3.82-14.83,10.37-20.12c4.48-2.63,9.44-3.26,14.52-3.93c1.02-0.14,1.02-0.14,2.07-0.29c2.19-0.29,4.38-0.56,6.57-0.81
		c0.68-0.08,1.37-0.16,2.07-0.25C317.46,137.09,321.82,137.39,326.6,138.05z"/>
	<path class="st9" d="M98.38,165.44c5.28,6.56,8.06,15.03,11.17,22.77c0.42,1.04,0.84,2.09,1.28,3.16c2.62,6.5,5.21,13,7.67,19.57
		c1.41,3.71,3.02,7.3,4.7,10.89c2.64,5.67,4.96,11.42,7.2,17.25c0.83,2.14,1.66,4.29,2.5,6.43c0.22,0.55,0.43,1.11,0.65,1.68
		c1.7,4.33,3.46,8.64,5.25,12.93c0.53,1.28,1.06,2.56,1.59,3.85c0.78,1.87,1.55,3.74,2.34,5.61c0.73,1.74,1.45,3.48,2.17,5.22
		c0.42,1,0.84,1.99,1.27,3.02c0.92,2.86,1.07,5.09,0.9,8.07c-0.58,0-1.16,0-1.76,0c-8.89-21.13-8.89-21.13-12.83-31.47
		c-1.64-4.29-3.39-8.54-5.17-12.78c-2.73-6.53-5.4-13.1-8.08-19.65c-1.03-2.52-2.06-5.04-3.09-7.55c-3.61-8.83-7.2-17.66-10.7-26.53
		c-4.41-12.37-4.41-12.37-12.94-21.71c-4.44-1.67-8.05-1.92-12.76-1.6c-0.65,0.04-1.3,0.09-1.97,0.13
		c-8.41,0.59-16.8,1.47-25.19,2.33c-1.13,0.12-2.27,0.23-3.44,0.35c-1.01,0.1-2.03,0.21-3.07,0.32c-2.73,0.22-5.4,0.27-8.13,0.23
		c2.68,6.38,5.36,12.71,8.56,18.86c1.66,3.35,3.14,6.77,4.64,10.19c0.54,1.21,1.07,2.41,1.61,3.62c0.26,0.6,0.53,1.2,0.8,1.81
		c3.19,7.2,6.42,14.38,9.66,21.55c2.06,4.58,4.09,9.17,6.09,13.77c2.14,4.92,4.36,9.79,6.64,14.65c2.26,4.82,4.47,9.66,6.67,14.51
		c3.62,7.98,7.26,15.96,10.92,23.92c2.27,4.95,4.53,9.9,6.78,14.86c1.29,2.83,2.6,5.65,3.91,8.47c0.62,1.65,0.62,1.65,0.62,4.29
		c0.58,0,1.16,0,1.76,0c0,0.58,0,1.16,0,1.76c-1.16,0-2.32,0-3.52,0c-4.51-9.46-8.86-18.98-13.09-28.58
		c-4.5-10.23-9.07-20.41-13.93-30.48c-4.28-8.88-8.23-17.91-12.13-26.97c-3.57-8.28-7.17-16.46-11.28-24.49
		c-2.74-5.51-5.17-11.16-7.63-16.79c-1.54-3.52-3.1-7.03-4.65-10.55c-0.28-0.64-0.56-1.27-0.84-1.92
		c-1.65-3.72-3.41-7.31-5.41-10.86c-0.71-2.04-0.27-3.11,0.31-5.14c5.79-0.64,11.58-1.26,17.37-1.88c1.97-0.21,3.93-0.43,5.89-0.64
		C89.52,158.44,89.52,158.44,98.38,165.44z"/>
	<path class="st12" d="M106.58,373.03c0.62,0.65,1.23,1.31,1.87,1.98c3.19,3.05,6.25,5.42,10.45,6.82
		c-0.02,1.05-0.04,2.11-0.05,3.19c-0.01,3.13,0.32,6.06,0.93,9.13c0.58,0,1.16,0,1.76,0c0,0.58,0,1.16,0,1.76
		c4.49,1.56,8.25,1.91,13,1.74c1.97,0.02,1.97,0.02,4.61,0.9c-0.25,0.6-0.5,1.2-0.76,1.83c-1.09,2.83-1.99,5.67-2.87,8.57
		c-0.47,1.53-0.47,1.53-0.94,3.1c-0.35,1.16-0.35,1.16-0.71,2.35c-9.08,0.55-15.12-0.59-22.22-6.38
		c-6.53-6.12-9.38-12.88-9.68-21.78c0.12-3.85,0.58-7.84,1.98-11.44C104.81,374.21,105.68,373.63,106.58,373.03z"/>
	<path class="st13" d="M475.33,61.48c0.29,0,0.58,0,0.88,0c0.91,11.98,0.91,11.98-2.31,16.39c-8.15,8.87-18.92,8.57-30.24,9.16
		c-9.68,0.66-18.06,3.1-24.65,10.53c-3.12,4.13-4.47,7.8-5.66,12.74c-0.18,0.73-0.37,1.46-0.55,2.21
		c-2.21,8.9-4.22,17.86-6.23,26.81c-0.42,1.89-0.85,3.77-1.27,5.66c-1.11,4.95-2.22,9.89-3.33,14.84
		c-1.09,4.88-2.19,9.76-3.29,14.64c-0.65,2.91-1.31,5.81-1.96,8.72c-0.43,1.93-0.87,3.86-1.3,5.79c-2.22,9.89-4.44,19.78-6.63,29.67
		c-0.89,4.02-1.78,8.04-2.68,12.06c-0.42,1.91-0.85,3.82-1.27,5.73c-0.58,2.63-1.16,5.26-1.75,7.89c-0.25,1.17-0.25,1.17-0.51,2.36
		c-0.16,0.71-0.32,1.43-0.49,2.17c-0.14,0.62-0.27,1.24-0.41,1.87c-0.55,1.9-1.34,3.53-2.27,5.27c-1.98-6.2-0.5-12.2,0.96-18.32
		c0.19-0.84,0.39-1.67,0.59-2.53c0.63-2.73,1.28-5.46,1.92-8.19c0.44-1.91,0.89-3.82,1.33-5.73c0.9-3.87,1.8-7.75,2.71-11.62
		c1.66-7.08,3.3-14.17,4.94-21.26c0.32-1.4,0.65-2.8,0.97-4.2c2.19-9.48,4.34-18.98,6.45-28.48c0.43-1.95,0.87-3.91,1.3-5.86
		c0.14-0.64,0.28-1.28,0.43-1.94c0.29-1.29,0.57-2.58,0.86-3.87c0.75-3.39,1.5-6.78,2.25-10.17c0.78-3.54,1.56-7.07,2.36-10.61
		c0.3-1.33,0.59-2.67,0.88-4c1.51-6.94,3.1-13.53,6.39-19.87c0.47-0.95,0.47-0.95,0.94-1.92c2.83-5.57,7.65-8.56,13.14-11.29
		c4.12-1.33,7.95-2.05,12.26-2.39c1.14-0.1,2.27-0.2,3.44-0.3c1.77-0.15,3.55-0.29,5.32-0.42c8.35-0.64,15.45-1.42,21.99-6.96
		C473.9,71.96,474.43,66.41,475.33,61.48z"/>
	<path class="st14" d="M68.13,204.71c3.69,1.26,3.9,1.64,5.56,4.96c0.72,1.67,1.42,3.36,2.09,5.05c0.76,1.79,1.52,3.58,2.28,5.37
		c0.36,0.88,0.73,1.75,1.1,2.66c1.29,3.07,2.68,6.08,4.1,9.09c0.49,1.04,0.98,2.09,1.48,3.16c1.17,2.47,2.35,4.94,3.53,7.41
		c4.99,10.39,9.78,20.85,14.46,31.38c0.69,1.56,0.69,1.56,1.4,3.15c0.41,0.92,0.82,1.85,1.24,2.8c0.85,1.85,1.75,3.68,2.69,5.48
		c1.16,2.45,1.16,2.45,1.11,4.87c-0.82,1.98-0.82,1.98-2.48,3.19c-1.87,0.55-1.87,0.55-4.51-0.33c-1.35-2.16-2.53-4.28-3.69-6.55
		c-0.35-0.67-0.69-1.33-1.05-2.02c-3.43-6.7-6.46-13.56-9.45-20.47c-1.07-2.44-2.18-4.86-3.31-7.27c-2.4-5.16-4.75-10.33-7.1-15.51
		c-6.1-13.67-6.1-13.67-12.76-27.06c-1.3-2.8-1.91-4.35-1.37-7.37C65.21,204.94,65.21,204.94,68.13,204.71z M66.09,207.58
		c0.51,3.07,1.31,5.59,2.67,8.38c0.54,1.12,0.54,1.12,1.1,2.27c0.39,0.79,0.78,1.58,1.18,2.39c2.77,5.71,5.48,11.43,7.98,17.27
		c1.85,4.31,3.81,8.52,5.94,12.71c2.34,4.6,4.51,9.25,6.6,13.97c0.29,0.66,0.58,1.31,0.88,1.99c1.56,3.53,3.08,7.07,4.58,10.62
		c0.31,0.73,0.62,1.45,0.94,2.2c0.6,1.39,1.18,2.79,1.76,4.19c1.55,3.67,1.55,3.67,4.42,6.3c0.51,0.15,1.03,0.29,1.55,0.44
		c-0.5-3.89-1.48-6.93-3.19-10.45c-2.09-4.39-4.08-8.79-6-13.26c-2.43-5.62-5.1-11.06-7.87-16.51c-1.32-2.7-2.5-5.4-3.62-8.18
		c-2.03-5.01-4.42-9.8-6.87-14.61c-1.73-3.45-3.32-6.95-4.9-10.48c-1.42-3.12-2.96-6.17-4.52-9.23
		C67.86,207.58,66.99,207.58,66.09,207.58z"/>
	<path class="st9" d="M354.76,159.17c0.58,0,1.16,0,1.76,0c1.22,4.08,0.45,7.54-0.46,11.59c-0.15,0.71-0.31,1.42-0.46,2.16
		c-0.51,2.35-1.03,4.7-1.55,7.05c-0.36,1.65-0.72,3.3-1.08,4.95c-3.13,14.3-6.45,28.55-9.8,42.8c-2.2,9.4-4.31,18.82-6.33,28.27
		c-1.2,5.65-2.42,11.29-3.64,16.94c-0.13,0.6-0.26,1.21-0.4,1.83c-2.1,9.66-4.42,19.23-7.08,28.75c-0.87-0.29-1.74-0.58-2.64-0.88
		c0.64-6.53,2.1-12.81,3.57-19.2c0.28-1.21,0.55-2.42,0.83-3.63c0.88-3.83,1.76-7.67,2.64-11.5c1.14-4.95,2.28-9.9,3.41-14.85
		c0.14-0.63,0.29-1.26,0.44-1.91c2.65-11.54,5.19-23.1,7.71-34.67c2.64-12.09,5.4-24.15,8.23-36.2
		C351.6,173.52,353.19,166.35,354.76,159.17z"/>
	<path class="st15" d="M191.07,280.62c0.87,0.29,1.74,0.58,2.64,0.88c-2.61,12.4-5.67,24.66-8.96,36.89
		c-0.45,1.67-0.89,3.34-1.32,5.02c-1.98,7.65-4.09,14.93-10.85,19.69c-6.33,3.24-12.63,4.34-19.64,5.06
		c-0.97,0.11-1.94,0.21-2.94,0.32c-22.9,2.39-22.9,2.39-32.65-4.61c-7.48-6.32-10.74-14.78-14.3-23.65c1.16,0,2.32,0,3.52,0
		c0.35,0.72,0.35,0.72,0.71,1.45c1.09,2.2,2.2,4.39,3.3,6.58c0.37,0.75,0.74,1.51,1.12,2.28c3.45,6.74,7.65,11.48,14.99,13.87
		c6.88,1.67,13.71,1.34,20.7,0.68c1.33-0.12,1.33-0.12,2.69-0.25c11.52-1.03,11.52-1.03,21.63-6.13c0.58,0,1.16,0,1.76,0
		c3.71-7.14,5.83-14.41,7.92-22.17c0.3-1.1,0.6-2.2,0.91-3.34c3.61-12.15,3.61-12.15,5.69-24.61
		C188.26,285.37,189.1,283.27,191.07,280.62z"/>
	<path class="st13" d="M41.45,180.3c2.64,0.88,2.64,0.88,3.41,2.38c0.2,0.61,0.4,1.22,0.6,1.85c0.84,2.53,1.79,4.84,3.03,7.21
		c0.85,1.65,1.69,3.3,2.53,4.95c0.43,0.85,0.87,1.69,1.31,2.56c1.12,2.37,2.12,4.71,3.07,7.15c2.01,5.1,4.3,10.06,6.61,15.04
		c3.11,6.73,6.14,13.47,9.02,20.3c1.54,3.57,3.18,7.08,4.84,10.59c2.28,4.85,4.5,9.72,6.71,14.6c3.62,7.98,7.26,15.95,10.92,23.92
		c2.27,4.95,4.53,9.9,6.78,14.86c1.29,2.83,2.59,5.65,3.91,8.47c0.62,1.65,0.62,1.65,0.62,4.29c0.58,0,1.16,0,1.76,0
		c0,0.58,0,1.16,0,1.76c-1.16,0-2.32,0-3.52,0c-4.51-9.46-8.87-18.98-13.09-28.58c-4.5-10.23-9.07-20.41-13.93-30.48
		c-4.28-8.88-8.23-17.91-12.13-26.97c-3.56-8.27-7.16-16.45-11.27-24.46c-2.76-5.56-5.23-11.27-7.7-16.96
		c-0.61-1.37-1.23-2.73-1.88-4.08c-0.33-0.7-0.66-1.4-1-2.13c-0.46-0.95-0.46-0.95-0.93-1.93C40.57,182.94,40.57,182.94,41.45,180.3
		z"/>
	<path class="st16" d="M229.79,71.16c2.61,0.29,4.02,0.49,5.89,2.39c5.66,8.8,7.99,17.41,5.82,27.8
		c-2.41,8.74-7.07,14.64-13.2,21.13c-0.5,0.53-0.99,1.06-1.5,1.6c-5.45,5.74-11,11.38-16.57,17.01c-1.07,1.09-2.15,2.17-3.22,3.26
		c-1.52,1.55-3.06,3.09-4.59,4.63c-0.46,0.47-0.92,0.94-1.39,1.42c-3.49,3.47-6.24,4.94-11.07,5.69c-6.83-0.91-12.06-5.99-16.5-11
		c0-0.58,0-1.16,0-1.76c-0.87-0.29-1.74-0.58-2.64-0.88c0-0.58,0-1.16,0-1.76c-0.87-0.29-1.74-0.58-2.64-0.88c0-0.58,0-1.16,0-1.76
		c2.02-0.2,2.02-0.2,4.4,0c1.53,1.32,1.53,1.32,2.91,3.13c5.77,7.31,5.77,7.31,13.97,11.06c3.59-0.12,5.02-0.48,7.76-2.75
		c0.9-1.16,1.78-2.33,2.64-3.52c0.58,0,1.16,0,1.76,0c0.34-0.77,0.34-0.77,0.69-1.55c1.16-2.12,2.44-3.57,4.15-5.27
		c0.54-0.54,1.07-1.08,1.62-1.64c1.46-1.22,1.46-1.22,3.22-1.22c0.44-1.31,0.44-1.31,0.88-2.64c1.43-1.5,2.9-2.97,4.4-4.4
		c0.49-0.53,0.98-1.05,1.49-1.59c1.15-1.05,1.15-1.05,2.91-1.05c0.3-0.74,0.3-0.74,0.62-1.5c1.44-2.54,3.25-4.2,5.38-6.2
		c7.41-7.33,11.38-14.52,11.69-25.2c-0.27-5.72-1.01-10.82-4.49-15.51c-1.16-0.9-2.33-1.78-3.52-2.64
		C230.01,73.2,230.01,73.2,229.79,71.16z"/>
	<path class="st17" d="M91.62,160.93c0.44,1.31,0.44,1.31,0.88,2.64c-4.27,0.67-8.43,1.03-12.76,1.21
		c-9.08,0.43-18.12,1.37-27.16,2.3c-1.13,0.11-2.27,0.23-3.44,0.35c-1.01,0.1-2.03,0.21-3.07,0.32c-2.73,0.22-5.4,0.27-8.13,0.23
		c0.33,0.73,0.66,1.46,0.99,2.22c0.42,0.96,0.83,1.91,1.26,2.9c0.63,1.42,0.63,1.42,1.27,2.88c0.88,2.57,0.88,2.57,0,5.21
		c-0.58,0-1.16,0-1.76,0c-1.06-2.12-2.1-4.25-3.13-6.38c-0.3-0.6-0.6-1.2-0.91-1.82c-1.57-3.26-2.38-5.07-1.23-8.52
		c5.79-0.64,11.58-1.26,17.37-1.88c1.96-0.21,3.93-0.43,5.89-0.64C85.47,158.88,85.47,158.88,91.62,160.93z M92.5,163.57
		c1.76,0.88,1.76,0.88,1.76,0.88L92.5,163.57z"/>
	<path class="st18" d="M440.18,53.73c0.83,1.59,0.83,1.59,0.66,3.85c-0.71,2.14-0.71,2.14-2.47,3.9c-2.15,0.45-4.27,0.82-6.44,1.16
		c-8.01,1.38-16.09,3.29-22.55,8.47c-0.89,0.6-1.78,1.2-2.69,1.81c-3.03-0.6-3.03-0.6-5.28-1.76c-0.22-1.98-0.22-1.98,0-4.4
		c5.92-7.36,13.6-10.37,22.44-12.54c0.94-0.23,0.94-0.23,1.9-0.47C436.13,51.39,436.13,51.39,440.18,53.73z M404.93,66.76
		c-0.7,1.84-0.7,1.84-0.88,3.52c2.92-0.54,4.72-1.6,7.1-3.35c8.13-5.52,16.7-7.02,26.35-8.09c0-1.16,0-2.32,0-3.52
		C426.26,54.9,413.38,59.21,404.93,66.76z"/>
	<path class="st11" d="M75.77,219.02c0.58,0,1.16,0,1.76,0c0.28,0.62,0.57,1.23,0.86,1.86c1.33,2.88,2.65,5.76,3.98,8.64
		c0.49,1.05,0.97,2.11,1.47,3.2c2.54,5.51,5.11,11.01,7.71,16.5c3.83,8.07,7.44,16.23,11.07,24.39c0.47,1.06,0.94,2.11,1.43,3.2
		c0.42,0.95,0.84,1.89,1.27,2.87c0.86,1.87,1.77,3.72,2.72,5.54c1.16,2.44,1.16,2.44,1.11,4.86c-0.83,1.98-0.83,1.98-2.48,3.19
		c-1.87,0.55-1.87,0.55-4.51-0.33c-1.05-1.81-1.05-1.81-1.76-3.52c3.52,0,3.52,0,5.28,0.88c-2.68-7.49-5.84-14.63-9.29-21.8
		c-2.17-4.52-4.24-9.07-6.22-13.68c-1.89-4.38-3.89-8.67-6.05-12.93c-2.31-4.56-4.51-9.15-6.6-13.81c-0.42-0.9-0.42-0.9-0.84-1.82
		C74.79,221.97,74.79,221.97,75.77,219.02z"/>
	<path class="st19" d="M317.8,322.87c0.58,0,1.16,0,1.76,0c-3.37,11.39-11.81,18.45-21.76,24.29c-10.25,5.17-22.33,5.07-33.58,5.74
		c-1.22,0.08-2.43,0.15-3.65,0.23c-2.93,0.18-5.86,0.36-8.78,0.54c0-0.58,0-1.16,0-1.76c-0.87,0-1.74,0-2.64,0c0-0.58,0-1.16,0-1.76
		c2.77-0.28,5.54-0.55,8.31-0.83c0.84-0.08,1.67-0.16,2.54-0.25c4.58-0.44,9.15-0.79,13.75-0.99c16.26-0.71,27.02-5.55,38.49-17.02
		c0.82-0.82,1.66-1.6,2.53-2.36C316.35,326.91,317.01,325.1,317.8,322.87z"/>
	<path class="st13" d="M166.42,217.26c1.1,3.15,0.65,5.23-0.2,8.41c-0.25,0.97-0.51,1.93-0.77,2.93c-0.28,1.03-0.56,2.06-0.85,3.13
		c-0.28,1.06-0.57,2.13-0.86,3.23c-1.92,7.17-3.93,14.31-6.01,21.44c-1.77,6.11-3.32,12.26-4.75,18.45c-0.96,4-2.15,7.43-4.17,11.06
		c-0.29,0-0.58,0-0.88,0c-0.53-7.52,1.46-14.14,3.52-21.29c0.54-1.93,1.09-3.85,1.63-5.78c0.37-1.32,0.74-2.64,1.11-3.95
		c1.27-4.51,2.49-9.03,3.66-13.56c0.16-0.6,0.32-1.21,0.48-1.83c0.75-2.88,1.49-5.76,2.23-8.65c0.27-1.03,0.54-2.06,0.81-3.12
		c0.23-0.9,0.46-1.8,0.7-2.72C163.04,222.13,164.26,219.43,166.42,217.26z"/>
	<path class="st20" d="M200.75,254.22c2.6,3.11,4.18,6.59,5.82,10.26c0.3,0.66,0.6,1.31,0.9,1.99c0.95,2.09,1.9,4.19,2.84,6.29
		c0.63,1.39,1.26,2.77,1.89,4.16c1.49,3.29,2.98,6.58,4.47,9.88c1.44,3.18,2.89,6.36,4.34,9.54c1.98,4.38,3.8,8.74,5.26,13.33
		c-1.31,0.44-1.31,0.44-2.64,0.88c-4.58-8.81-8.71-17.75-12.62-26.88c-2.59-6.03-5.31-11.97-8.17-17.87
		C199.47,258.06,199.47,258.06,200.75,254.22z"/>
	<path class="st21" d="M55.08,174.71c2.66,1.42,3.2,2.42,4.41,5.14c0.36,0.79,0.71,1.57,1.08,2.38c0.37,0.81,0.74,1.62,1.12,2.46
		c0.82,1.54,1.65,3.08,2.47,4.62c1.65,3.3,2.49,5.71,1.93,9.46c-0.29,0.58-0.58,1.16-0.88,1.76c-2.92,0.22-2.92,0.22-6.16,0
		c-2.94-2.99-4.55-7.15-6.33-10.89c-0.32-0.65-0.65-1.31-0.98-1.98c-1.78-3.74-2.94-6.65-2.37-10.89
		C51.34,174.45,52.1,173.93,55.08,174.71z M52.01,177.66c0.54,4.33,2.42,7.79,4.4,11.61c0.32,0.64,0.65,1.27,0.98,1.93
		c0.84,1.65,1.69,3.3,2.54,4.95c0.29,0.58,0.58,1.16,0.88,1.76c0.87-0.29,1.74-0.58,2.64-0.88c-2.02-7-5.24-13.04-8.8-19.36
		C53.78,177.66,52.91,177.66,52.01,177.66z"/>
	<path class="st22" d="M398.77,165.33c0.29,0,0.58,0,0.88,0c-0.47,5.89-1.33,11.54-2.64,17.3c-0.17,0.76-0.34,1.53-0.52,2.32
		c-0.36,1.6-0.72,3.2-1.08,4.79c-0.56,2.45-1.1,4.9-1.64,7.36c-0.35,1.56-0.7,3.12-1.05,4.68c-0.24,1.1-0.24,1.1-0.49,2.22
		c-1.18,5.14-1.18,5.14-3.14,7.1c-0.91-5.28-0.73-9.34,0.48-14.54c0.15-0.68,0.3-1.37,0.46-2.08c0.32-1.44,0.65-2.87,0.98-4.3
		c0.5-2.19,0.99-4.38,1.47-6.58c0.32-1.4,0.63-2.8,0.95-4.2c0.14-0.65,0.29-1.31,0.43-1.98c0.81-3.45,1.72-5.88,4.04-8.57
		C398.51,166.96,398.51,166.96,398.77,165.33z M388.2,211.1c0.87,0.44,0.87,0.44,1.76,0.88c0,0.58,0,1.16,0,1.76
		c-0.58,0-1.16,0-1.76,0C388.2,212.87,388.2,212,388.2,211.1z"/>
	<path class="st14" d="M86.34,279.74c2.64,0.88,2.64,0.88,3.69,2.73c0.33,0.8,0.67,1.6,1.01,2.42c0.56,1.32,0.56,1.32,1.13,2.66
		c0.57,1.39,0.57,1.39,1.16,2.81c0.76,1.81,1.52,3.62,2.28,5.42c0.37,0.87,0.73,1.74,1.11,2.64c1.41,3.23,2.98,6.35,4.59,9.49
		c0.67,1.41,1.34,2.82,1.98,4.23c0.29,0.64,0.59,1.28,0.89,1.94c0.65,1.74,0.65,1.74,0.65,4.38c0.58,0,1.16,0,1.76,0
		c0,0.58,0,1.16,0,1.76c-1.16,0-2.32,0-3.52,0c-4.14-8.63-8.16-17.32-12.09-26.05c-0.49-1.08-0.98-2.16-1.47-3.24
		c-0.7-1.53-1.38-3.06-2.07-4.59c-0.4-0.89-0.8-1.78-1.22-2.7c-0.25-0.71-0.5-1.42-0.76-2.14
		C85.75,280.92,86.04,280.34,86.34,279.74z"/>
	<path class="st23" d="M475.33,61.48c0.29,0,0.58,0,0.88,0c0.91,11.98,0.91,11.98-2.31,16.39c-4.96,5.4-9.87,7.47-17.05,8.25
		c-3.53,0.12-7.03,0.11-10.56,0c0-0.87,0-1.74,0-2.64c3.03-0.67,5.92-1,9.02-1.15c6.18-0.55,10.77-2.25,15.51-6.27
		C473.9,71.96,474.43,66.41,475.33,61.48z"/>
	<path class="st24" d="M358.17,434.58c2.51,0.09,5.03,0.17,7.54,0.28c0.96,0.04,1.91,0.08,2.9,0.12c8.64,0.4,17.25,1.09,25.87,1.86
		c0.65,0.06,1.3,0.12,1.97,0.18c6.08,0.54,12.12,1.12,18.16,2.03c-0.29,0.58-0.58,1.16-0.88,1.76c-9.84-0.48-19.66-1.17-29.48-2
		c-7.07-0.58-14.14-0.96-21.24-1.14c-5.42-0.19-5.42-0.19-7.37-2.14C356.52,434.64,356.52,434.64,358.17,434.58z"/>
	<path class="st11" d="M406.69,126.61c0.58,0.29,1.16,0.58,1.76,0.88c-0.51,5.2-1.25,10.22-2.38,15.31
		c-0.15,0.66-0.29,1.33-0.44,2.01c-0.31,1.39-0.62,2.78-0.93,4.16c-0.48,2.12-0.93,4.24-1.39,6.37c-0.3,1.36-0.61,2.71-0.92,4.07
		c-0.13,0.63-0.27,1.26-0.4,1.91c-0.88,3.78-1.94,5.96-4.97,8.41c0.58-7.22,2.21-14.1,3.91-21.12c0.28-1.17,0.56-2.34,0.83-3.51
		c0.53-2.23,1.06-4.47,1.6-6.7c0.6-2.57,1.17-5.14,1.73-7.73C405.81,127.49,405.81,127.49,406.69,126.61z"/>
	<path class="st25" d="M55.53,164.45c0,0.29,0,0.58,0,0.88c-1.94,0.45-3.89,0.89-5.83,1.32c-1.08,0.24-2.17,0.49-3.28,0.74
		c-2.92,0.53-5.53,0.69-8.49,0.58c0.33,0.73,0.66,1.46,0.99,2.22c0.42,0.96,0.83,1.91,1.26,2.9c0.63,1.42,0.63,1.42,1.27,2.88
		c0.88,2.57,0.88,2.57,0,5.21c-0.58,0-1.16,0-1.76,0c-1.06-2.12-2.1-4.25-3.13-6.38c-0.45-0.9-0.45-0.9-0.91-1.82
		c-1.57-3.26-2.38-5.07-1.23-8.52C41.58,163.63,48.38,163.02,55.53,164.45z"/>
	<path class="st26" d="M159.38,395.92c0,1.16,0,2.32,0,3.52c-0.53,0.26-1.06,0.51-1.61,0.78c-7,3.59-9.62,7.92-12.47,15.06
		c-0.87,0-1.74,0-2.64,0c-0.5-4.81,0.3-7.5,3.02-11.5C149.53,399.05,153.17,395.75,159.38,395.92z"/>
	<path class="st26" d="M331,381.83c-0.23,1.65-0.23,1.65-0.88,3.52c-1.5,0.96-1.5,0.96-3.35,1.71c-6.28,2.91-8.22,8.01-10.73,14.14
		c-0.87,0-1.74,0-2.64,0c-0.41-5,0.41-8.41,3.52-12.32C321.36,384.39,324.48,381.66,331,381.83z"/>
	<path class="st27" d="M207.87,433.67c0.83,0,1.66,0,2.52,0c2.64,0.01,5.27,0.02,7.91,0.03c1.79,0,3.59,0.01,5.39,0.01
		c4.38,0.01,8.77,0.02,13.15,0.04c-2.69,1.8-3.39,2-6.46,2.12c-0.78,0.03-1.56,0.07-2.36,0.1c-1.27,0.04-1.27,0.04-2.56,0.08
		c-0.88,0.03-1.75,0.07-2.65,0.1c-11.16,0.38-22.32,0.31-33.49,0.23C194.87,433.06,201.6,433.64,207.87,433.67z"/>
	<path class="st7" d="M115.38,366.87c0.87,0.58,1.74,1.16,2.64,1.76c0,0.87,0,1.74,0,2.64c0.58,0,1.16,0,1.76,0
		c0.88,2.64,0.88,2.64,0.2,4.25c-0.95,1.52-1.89,3.04-2.84,4.56c-3.04-1.1-5.41-2.35-7.92-4.4c0.14-2.38,0.42-3.93,2.11-5.67
		C112.65,368.92,114.01,367.89,115.38,366.87z"/>
	<path class="st28" d="M197.23,253.34c0.58,0,1.16,0,1.76,0c0.23,6.16-0.56,11.52-2.03,17.49c-0.19,0.82-0.38,1.65-0.57,2.5
		c-0.29,1.18-0.29,1.18-0.58,2.39c-0.17,0.71-0.34,1.42-0.52,2.15c-0.79,2.09-1.6,3.13-3.34,4.51c-0.58,0-1.16,0-1.76,0
		c1.05-5.36,2.3-10.68,3.52-16.01c0.24-1.06,0.48-2.11,0.73-3.2c0.23-1.01,0.46-2.01,0.7-3.05c0.21-0.92,0.42-1.84,0.64-2.79
		C196.35,255.1,196.35,255.1,197.23,253.34z"/>
	<path class="st29" d="M378.52,248.94c1.34,4.99,1.99,8.98,0.75,14.07c-0.35,1.45-0.35,1.45-0.71,2.93c-0.25,1-0.5,2-0.76,3.02
		c-0.24,1.01-0.48,2.02-0.73,3.06c-1.84,7.48-1.84,7.48-3.83,9.48C372.76,270.21,374.48,259.49,378.52,248.94z M372.36,281.5
		c0.58,0.58,1.16,1.16,1.76,1.76c-0.58,0.58-1.16,1.16-1.76,1.76C372.36,283.86,372.36,282.7,372.36,281.5z"/>
	<path class="st30" d="M191.07,280.62c0.87,0.29,1.74,0.58,2.64,0.88c-1.93,8.83-3.89,17.65-6.16,26.4c-0.58,0-1.16,0-1.76,0
		C186.97,286.81,186.97,286.81,191.07,280.62z"/>
	<path class="st31" d="M362.68,133.65c1.59,4.77-0.51,9.83-1.59,14.63c-0.24,1.11-0.48,2.23-0.73,3.38
		c-0.24,1.06-0.47,2.11-0.72,3.2c-0.33,1.46-0.33,1.46-0.66,2.95c-0.23,0.74-0.46,1.48-0.7,2.24c-0.58,0.29-1.16,0.58-1.76,0.88
		c-1.53-5.42-0.1-10.28,1.1-15.62c0.19-0.93,0.38-1.85,0.58-2.81c0.19-0.88,0.39-1.77,0.59-2.68c0.18-0.81,0.35-1.61,0.53-2.44
		C360.04,135.41,360.04,135.41,362.68,133.65z"/>
	<path class="st32" d="M229.79,71.16c2.56,0.29,4.01,0.5,5.89,2.33c3.58,5.42,5.2,10.68,6.43,17.03c-2.52-1.26-2.97-3.01-4.23-5.5
		c-2.18-4.14-2.18-4.14-5.28-7.59C230.43,75.33,230.04,74.13,229.79,71.16z"/>
	<path class="st33" d="M185.79,300.87c2.2,8.19-0.17,15.04-2.64,22.88c-0.58,0-1.16,0-1.76,0c-0.29,0.87-0.58,1.74-0.88,2.64
		c-1.09-3.26-0.53-4.62,0.38-7.9c0.28-1.02,0.56-2.05,0.85-3.1c0.3-1.07,0.6-2.14,0.91-3.24c0.3-1.08,0.59-2.16,0.9-3.27
		C184.29,306.2,185.03,303.53,185.79,300.87z"/>
	<path class="st34" d="M431.33,441.68c7.37,0.46,14.13,2.07,21.12,4.4c0,0.58,0,1.16,0,1.76c-7.33-1.47-14.67-2.93-22-4.4
		C430.74,442.86,431.03,442.28,431.33,441.68z M453.33,446.96c0.29,0.58,0.58,1.16,0.88,1.76c-0.58-0.29-1.16-0.58-1.76-0.88
		C452.74,447.55,453.03,447.26,453.33,446.96z M455.97,448.72c0.58,1.16,1.16,2.32,1.76,3.52c-0.58,0-1.16,0-1.76,0
		c-0.29-0.87-0.58-1.74-0.88-2.64C455.38,449.31,455.67,449.02,455.97,448.72z M455.09,452.24c0.58,0.58,1.16,1.16,1.76,1.76
		c-0.87,0.29-1.74,0.58-2.64,0.88C454.5,454.01,454.79,453.14,455.09,452.24z"/>
	<path class="st35" d="M82.76,159.94c1.1,0,2.19,0,3.32-0.01c2.89,0.12,2.89,0.12,5.53,1c0.29,0.87,0.58,1.74,0.88,2.64
		c-6.04,1.4-11.57,0.22-17.6-0.88c0-0.58,0-1.16,0-1.76C77.5,159.63,79.87,159.94,82.76,159.94z M92.5,163.57
		c1.76,0.88,1.76,0.88,1.76,0.88L92.5,163.57z"/>
	<path class="st36" d="M229.79,432.88c10.75,0,21.49,0,32.56,0c-0.29,0.58-0.58,1.16-0.88,1.76c-3.63,0.2-7.26,0.38-10.89,0.55
		c-1.02,0.06-2.04,0.11-3.08,0.17c-6.19,0.28-11.71-0.02-17.71-1.6C229.79,433.47,229.79,433.18,229.79,432.88z"/>
	<path class="st27" d="M131.22,461.92c4.33,0.24,8.67,0.49,13,0.76c1.76,0.11,3.52,0.21,5.28,0.31c1.41,0.1,1.41,0.1,2.85,0.19
		c0.84,0.05,1.67,0.11,2.53,0.16c0.62,0.11,1.23,0.22,1.87,0.33c0.29,0.58,0.58,1.16,0.88,1.76c-9.02,0.23-17.5-0.34-26.4-1.76
		C131.22,463.1,131.22,462.52,131.22,461.92z"/>
	<path class="st37" d="M322.2,302.63c1.16,0.58,2.32,1.16,3.52,1.76c-0.69,2.61-1.39,5.21-2.09,7.81c-0.2,0.74-0.39,1.48-0.59,2.25
		c-0.19,0.71-0.39,1.42-0.58,2.15c-0.18,0.65-0.35,1.31-0.53,1.98c-0.6,1.65-0.6,1.65-2.36,3.41c-1.39-4.35-0.28-7.88,0.83-12.16
		c0.17-0.69,0.34-1.39,0.52-2.1C321.33,306.03,321.76,304.33,322.2,302.63z"/>
	<path class="st38" d="M65.21,204.94c1.76,0.88,1.76,0.88,1.76,0.88L65.21,204.94z M67.85,204.94c1.63,0.03,1.63,0.03,3.52,0.88
		c1.53,2.5,1.53,2.5,2.91,5.61c0.47,1.02,0.94,2.05,1.42,3.1c0.95,2.73,0.95,2.73,0.07,5.37c-0.58,0-1.16,0-1.76,0
		c-0.88-1.87-1.76-3.74-2.64-5.61c-0.73-1.56-0.73-1.56-1.49-3.16c-1.15-2.67-1.15-2.67-1.15-4.43c-0.58-0.29-1.16-0.58-1.76-0.88
		C67.26,205.53,67.55,205.24,67.85,204.94z"/>
	<path class="st39" d="M105.7,443.44c-0.29,0.58-0.58,1.16-0.88,1.76c-3.08,0.95-6.19,1.7-9.31,2.47c-3.11,1.09-4.37,2.16-6.53,4.57
		c-0.58,0-1.16,0-1.76,0c0.39-1.98,0.39-1.98,1.76-4.4C94.38,444.68,99.47,443.32,105.7,443.44z M89.86,453.12
		c2.18,0.87,2.18,0.87,4.4,1.76c-0.87,0.44-0.87,0.44-1.76,0.88c-1.87-0.83-1.87-0.83-3.52-1.76
		C89.27,453.71,89.56,453.42,89.86,453.12z"/>
	<path class="st40" d="M74.89,160.93c0,0.58,0,1.16,0,1.76c2.32,0,4.65,0,7.04,0c-0.29,0.58-0.58,1.16-0.88,1.76
		c-5.81,0.29-11.62,0.58-17.6,0.88C65.79,160.66,70.2,160.66,74.89,160.93z"/>
	<path class="st41" d="M455.97,52.68c1.15,2.31,1.15,2.31,1.76,4.4c-1.37,1.81-1.37,1.81-3.52,3.52c-3.19-0.05-3.19-0.05-6.16-0.88
		c-1.76-2.64-1.76-2.64-1.71-4.9c0.83-2.15,0.83-2.15,2.81-3.41C452.15,50.8,453.38,51.07,455.97,52.68z M448.05,53.56
		c-0.04,1.47-0.04,2.93,0,4.4c0.98,1.18,0.98,1.18,3.47,0.99c2.62,0.08,2.62,0.08,4.45-0.99c-0.29-1.45-0.58-2.9-0.88-4.4
		C452.77,53.56,450.44,53.56,448.05,53.56z"/>
	<path class="st42" d="M322.2,211.98c1.76,1.76,1.76,1.76,2.03,4.29c-0.13,4.81-1.36,9.66-2.91,14.19
		c-0.58,0.29-1.16,0.58-1.76,0.88C319.15,224.48,320.3,218.56,322.2,211.98z"/>
	<path class="st43" d="M238.59,86.13c2.27,1.14,2.59,2.07,3.52,4.4c0.2,1.98,0.2,1.98,0.17,4.01c-0.01,0.67-0.01,1.35-0.02,2.04
		c-0.15,1.87-0.15,1.87-1.03,4.51c-0.87,0.29-1.74,0.58-2.64,0.88C238.59,96.74,238.59,91.51,238.59,86.13z"/>
	<path class="st44" d="M398.09,437.27c1.72,0.14,1.72,0.14,3.48,0.29c1.71,0.13,1.71,0.13,3.45,0.26c3.22,0.32,6.39,0.73,9.59,1.22
		c-0.29,0.58-0.58,1.16-0.88,1.76c-2.55-0.12-5.1-0.25-7.65-0.39c-0.72-0.03-1.44-0.07-2.18-0.1c-3.55-0.19-6.95-0.43-10.42-1.27
		C395.25,437.28,395.25,437.28,398.09,437.27z"/>
	<path class="st45" d="M400.53,153.89c1.26,4.15,0.94,8.12,0,12.32c-1.81,2.31-1.81,2.31-3.52,3.52
		C397.45,164.07,398.53,159.21,400.53,153.89z"/>
	<path class="st46" d="M358.32,434.52c4.47,0.01,8.78,0.06,13.17,1c0.29,0.58,0.58,1.16,0.88,1.76c-2.46,0.05-4.91,0.08-7.37,0.11
		c-0.7,0.01-1.4,0.03-2.12,0.04c-1.83,0.01-3.65-0.06-5.47-0.15c-0.58-0.58-1.16-1.16-1.76-1.76
		C356.52,434.64,356.52,434.64,358.32,434.52z"/>
	<path class="st47" d="M375,268.3c1.76,2.64,1.76,2.64,1.35,5.21c-0.27,0.95-0.53,1.9-0.8,2.88c-0.26,0.96-0.52,1.91-0.79,2.9
		c-0.32,1.1-0.32,1.1-0.64,2.22c-0.89-2.85-0.87-5.13-0.55-8.09c0.08-0.77,0.16-1.55,0.24-2.35
		C374.12,269.18,374.12,269.18,375,268.3z M372.36,281.5c0.58,0.58,1.16,1.16,1.76,1.76c-0.58,0.58-1.16,1.16-1.76,1.76
		C372.36,283.86,372.36,282.7,372.36,281.5z"/>
	<path class="st41" d="M359.16,149.49c0.95,2.85,0.81,3.86,0.17,6.71c-0.15,0.7-0.3,1.4-0.46,2.12c-0.59,1.73-0.59,1.73-2.35,2.61
		c-0.9-3.87-0.99-6.14,0.88-9.68C357.98,150.67,358.56,150.09,359.16,149.49z"/>
	<path class="st48" d="M323.08,308.79c1.38,2.77,0.1,4.72-0.83,7.59c-0.33,1.05-0.67,2.09-1.01,3.17c-0.26,0.81-0.53,1.61-0.8,2.44
		c-1.76-2.64-1.76-2.64-1.43-5.45c0.18-0.82,0.36-1.63,0.55-2.47c0.58,0,1.16,0,1.76,0C321.9,312.33,322.48,310.58,323.08,308.79z"
		/>
	<path class="st34" d="M162.02,464.56c4.35-0.3,5.09-0.14,8.8,2.64c-2.9-0.29-5.81-0.58-8.8-0.88
		C162.02,465.74,162.02,465.16,162.02,464.56z M170.82,465.44c1.45,0,2.9,0,4.4,0c-0.29,0.58-0.58,1.16-0.88,1.76
		C173.18,466.62,172.02,466.04,170.82,465.44z M176.1,465.44c0.58,0,1.16,0,1.76,0c-0.29,0.58-0.58,1.16-0.88,1.76
		C176.69,466.62,176.4,466.04,176.1,465.44z"/>
	<path class="st49" d="M83.7,160.05c-0.29,0.87-0.58,1.74-0.88,2.64c-2.61,0-5.23,0-7.92,0c0-0.58,0-1.16,0-1.76
		C77.72,159.52,80.56,160,83.7,160.05z M85.46,160.05c0.29,0.58,0.58,1.16,0.88,1.76c-0.87-0.29-1.74-0.58-2.64-0.88
		C84.28,160.64,84.86,160.35,85.46,160.05z"/>
	<path class="st50" d="M118.02,440.8c-1.55,1.92-2.37,2.58-4.82,3.09c-0.79,0.05-1.57,0.1-2.38,0.15c-0.79,0.06-1.59,0.12-2.4,0.18
		c-0.91,0.05-0.91,0.05-1.83,0.1c1.76-2.64,1.76-2.64,4.23-3.25C113.24,440.84,115.58,440.73,118.02,440.8z"/>
	<path class="st51" d="M336.28,157.41c0.58,0,1.16,0,1.76,0c-0.58,2.9-1.16,5.81-1.76,8.8c-1.16,0-2.32,0-3.52,0
		C333.92,163.31,335.08,160.41,336.28,157.41z"/>
	<path class="st52" d="M131.22,461.92c1.11-0.02,2.21-0.04,3.35-0.05c0.62-0.01,1.25-0.02,1.89-0.03c1.8,0.09,1.8,0.09,4.44,0.97
		c0,0.58,0,1.16,0,1.76c-6.54,0.13-6.54,0.13-9.68-0.88C131.22,463.1,131.22,462.52,131.22,461.92z"/>
	<path class="st53" d="M182.26,316.71c1.26,2.07,1.84,3.06,1.43,5.5c-0.27,0.76-0.27,0.76-0.55,1.54c-0.58,0-1.16,0-1.76,0
		c-0.29,0.87-0.58,1.74-0.88,2.64c-1-3-0.76-3.52,0.39-6.33c0.25-0.63,0.51-1.26,0.77-1.91
		C181.86,317.68,182.06,317.2,182.26,316.71z"/>
	<path class="st50" d="M105.7,443.44c-0.29,0.58-0.58,1.16-0.88,1.76c-2.2,0.56-2.2,0.56-4.9,0.99c-1.34,0.22-1.34,0.22-2.7,0.45
		c-1.03,0.16-1.03,0.16-2.09,0.32C97.97,442.71,100.9,443.35,105.7,443.44z"/>
	<path class="st54" d="M371.48,435.52c1.11-0.04,2.21-0.07,3.35-0.11c0.62-0.02,1.25-0.04,1.89-0.06c1.8,0.17,1.8,0.17,4.44,1.93
		c-0.29,0.29-0.58,0.58-0.88,0.88c-1.79-0.04-1.79-0.04-3.96-0.27c-0.72-0.07-1.43-0.14-2.17-0.21c-0.59-0.13-1.18-0.26-1.79-0.4
		C372.07,436.7,371.78,436.12,371.48,435.52z"/>
	<path class="st46" d="M405.81,438.16c1.49,0.08,2.97,0.22,4.45,0.39c1.21,0.13,1.21,0.13,2.45,0.27c0.62,0.07,1.25,0.15,1.89,0.22
		c-0.29,0.58-0.58,1.16-0.88,1.76c-5.33,0.17-5.33,0.17-7.04,0c-0.58-0.58-1.16-1.16-1.76-1.76
		C405.22,438.75,405.51,438.46,405.81,438.16z"/>
	<path class="st55" d="M453.33,446.96c0.29,0.58,0.58,1.16,0.88,1.76c-0.58-0.29-1.16-0.58-1.76-0.88
		C452.74,447.55,453.03,447.26,453.33,446.96z M455.97,448.72c0.58,1.16,1.16,2.32,1.76,3.52c-0.58,0-1.16,0-1.76,0
		c-0.29-0.87-0.58-1.74-0.88-2.64C455.38,449.31,455.67,449.02,455.97,448.72z M455.09,452.24c0.58,0.58,1.16,1.16,1.76,1.76
		c-0.87,0.29-1.74,0.58-2.64,0.88C454.5,454.01,454.79,453.14,455.09,452.24z"/>
	<path class="st56" d="M309,274.46c0.58,0.58,1.16,1.16,1.76,1.76c-0.87,2.61-1.74,5.23-2.64,7.92c-0.58-0.58-1.16-1.16-1.76-1.76
		C307.23,279.77,308.1,277.16,309,274.46z"/>
	<path class="st57" d="M414.61,439.04c2.61,0.29,5.23,0.58,7.92,0.88c-3.02,2.02-4.39,1.92-7.92,1.76
		C414.61,440.81,414.61,439.94,414.61,439.04z"/>
	<path class="st27" d="M124.18,440.8c-1.76,1.76-1.76,1.76-4.51,1.87c-1.25-0.05-1.25-0.05-2.53-0.11
		C118.77,439.29,121.15,439.86,124.18,440.8z"/>
	<path class="st39" d="M446.29,444.32c2.03,0.58,4.07,1.16,6.16,1.76c-0.29,0.58-0.58,1.16-0.88,1.76
		c-2.03-0.58-4.07-1.16-6.16-1.76C445.7,445.5,445.99,444.92,446.29,444.32z"/>
	<path class="st58" d="M187.55,295.59c0.87,0,1.74,0,2.64,0c-1.54,3.41-1.54,3.41-3.52,4.4
		C186.96,298.53,187.25,297.08,187.55,295.59z"/>
	<path class="st59" d="M113.62,440.8c1.45,0,2.9,0,4.4,0c-1.31,1.31-1.31,1.31-2.64,2.64c-0.87-0.29-1.74-0.58-2.64-0.88
		C113.03,441.98,113.32,441.4,113.62,440.8z"/>
	<path class="st53" d="M321.32,315.83c0.29,0.58,0.58,1.16,0.88,1.76c-0.83,2.31-0.83,2.31-1.76,4.4c-0.58-1.16-1.16-2.32-1.76-3.52
		C319.55,317.6,320.42,316.73,321.32,315.83z"/>
	<path class="st60" d="M308.12,280.62c0.29,0.87,0.58,1.74,0.88,2.64c-0.87,0-1.74,0-2.64,0
		C306.94,282.39,307.52,281.52,308.12,280.62z"/>
</g>
</svg>
